<?xml version="1.0" standalone="no"?><!DOCTYPE svg PUBLIC "-//W3C//DTD SVG 1.1//EN" "http://www.w3.org/Graphics/SVG/1.1/DTD/svg11.dtd"><svg t="1587784887333" class="icon" viewBox="0 0 1024 1024" version="1.1" xmlns="http://www.w3.org/2000/svg" p-id="4927" xmlns:xlink="http://www.w3.org/1999/xlink" width="32" height="32"><defs><style type="text/css"></style></defs><path d="M833.2 682.2c0 73.7-161.6 133.4-361 133.4s-361-59.7-361-133.4 161.6-137.4 361-137.4 361 63.7 361 137.4z" fill="#CCB897" p-id="4928"></path><path d="M462.4 779.4c-15.2 0.2-30.4-0.2-45.6-1.4-15.2-1.3-30.3-3.4-45.3-6.7-7.5-1.7-14.9-3.7-22.1-6.2-7.3-2.5-14.4-5.4-21.3-9.2-6.8-3.8-13.4-8.3-18.7-14.5-2.6-3.1-4.8-6.7-6.2-10.8-1.3-4-1.7-8.5-0.8-12.8 0.9-4.3 3-8.1 5.5-11.4 1.3-1.7 2.6-3.2 4.1-4.6a56 56 0 0 1 4.5-4c6.3-5 13.2-8.9 20.2-12.2 14.2-6.6 29-11.1 44.1-14.6 15-3.5 30.3-6 45.6-7.7 15.3-1.7 30.7-2.6 46.1-2.9h0.2c0.1 0 0.1-0.1 0.2-0.1 0.1-0.1 0.2-0.1 0.4-0.1h10.8c3.9 0 7.7 0.1 11.6 0.2 7.7 0.2 15.4 0.6 23.1 1.1 15.4 1.1 30.8 3 46.2 5.9 7.7 1.5 15.3 3.3 22.9 5.5 7.6 2.2 15.1 4.9 22.5 8.2 7.4 3.3 14.7 7.3 21.5 12.7 3.4 2.7 6.7 5.9 9.6 9.7 2.9 3.8 5.3 8.5 6.4 13.9 1.1 5.5 0.4 10.9-1.3 15.7-1.7 4.9-4.5 8.9-7.5 12.4s-6.4 6.3-9.8 8.8c-3.5 2.5-7 4.6-10.6 6.5-7.3 3.8-14.7 6.7-22.3 9.1-7.5 2.4-15.1 4.3-22.8 5.7-15.3 3-30.7 4.6-46 5.1-15.4 0.5-30.7 0.1-45.9-1.4 15.2-1.5 30.3-3.2 45.2-5.7 14.9-2.5 29.6-5.6 43.9-9.7 7.1-2.1 14.2-4.4 21-7.1 6.8-2.7 13.4-5.8 19.4-9.4 6-3.6 11.5-7.8 15.3-12.6 1.9-2.4 3.3-4.8 4-7.2 0.7-2.4 0.8-4.7 0.3-6.8-0.5-2.1-1.6-4.3-3.4-6.5-1.7-2.2-4-4.4-6.6-6.4-2.6-2-5.4-3.9-8.4-5.6-3-1.7-6.1-3.3-9.4-4.8-6.4-3-13.3-5.6-20.2-7.8-6.9-2.3-14.1-4.3-21.3-6-14.4-3.5-29.1-6.1-44-7.9-7.4-0.9-14.9-1.6-22.4-2.1-3.7-0.2-7.5-0.4-11.2-0.6l-5.6-0.2-2.8-0.1H473.4c-0.1 0-0.2 0-0.4-0.1-0.1 0-0.1-0.1-0.2-0.1h-0.2c-15-0.2-30.1 0.2-45.1 1.3-15 1.2-29.9 3.1-44.6 6-14.7 3-29.2 6.9-42.9 12.7-6.8 2.9-13.4 6.3-19.1 10.7-2.9 2.2-5.5 4.5-7.7 7.2s-3.9 5.6-4.6 8.8c-0.8 3.1-0.6 6.5 0.3 9.7 0.9 3.2 2.7 6.3 4.8 9.1 4.4 5.6 10.4 10.1 16.8 13.9 6.4 3.8 13.3 6.9 20.3 9.6 7 2.7 14.3 4.9 21.6 6.8 14.6 3.8 29.6 6.4 44.7 8.2 14.9 1.6 30.1 2.6 45.3 2.8z" fill="#FFFFFF" p-id="4929"></path><path d="M773.1 607.2c-12.6-7.3-27-14.1-42.9-20.3-2.8 1.8-5.8 3.8-9 6-54 36.8-300 3.6-349 33.6s-209.7 61.7-89 70.8c120.7-114.9 257-54.3 379.5-44.3 80 6.5 105.2-19.8 110.4-45.8z" fill="#FFFFFF" p-id="4930"></path><path d="M472.2 821.6c-97.1 0-188.5-14-257.4-39.5-70.7-26.1-109.7-61.6-109.7-100 0-38.5 38.9-74.8 109.6-102 69.5-26.8 160.9-41.5 257.4-41.5s187.9 14.7 257.4 41.5c70.7 27.2 109.6 63.4 109.6 102 0 38.3-38.9 73.8-109.7 100-68.7 25.5-160.1 39.5-257.2 39.5z m0-270.9c-95.1 0-185 14.4-253.1 40.7-64.8 24.9-101.9 58-101.9 90.8 0 16.2 8.9 32.2 26.3 47.4 17.6 15.4 43 29.3 75.5 41.3 67.5 25 157.5 38.7 253.2 38.7 95.7 0 185.7-13.7 253.2-38.7 32.5-12 57.9-25.9 75.5-41.3 17.5-15.3 26.3-31.2 26.3-47.4 0-32.8-37.1-65.8-101.9-90.8-68.1-26.2-158-40.7-253.1-40.7z" fill="" p-id="4931"></path><path d="M280.6 408.8c-18-38-44-67.4-98.7-44-54.7 23.3-16 120 24 145.3s78 48.7 100 93.4c22 44.6-15.3-78.3-67.3-123.5s-59.3-86.5-31.3-91.2c28-4.7 44.7 16.7 66.7 87.3s6.6-67.3 6.6-67.3z" fill="#F2F2F2" p-id="4932"></path><path d="M174.5 454.8c-9.4-34.3-0.7-57.3 19.3-70 0 0 9.6-4.1 21.3-7.6s-9.6-7.2-21.3-4.8c-15.1 3.1-29 13.4-38.1 26.8-3.5 21 3.3 47 15 69.1 4.5 1.1 6.9-2.4 3.8-13.5z" fill="#603018" p-id="4933"></path><path d="M311.8 619.1c-4.5 0-7-4.2-11.3-12.9-20.8-42.2-57-65.1-95.4-89.4l-2.4-1.5c-14.2-9-28.4-26.3-38.9-47.4-11-22.1-16.2-44.6-14.7-63.5 1.8-21.7 12.3-37.3 30.4-45.1 27.1-11.6 49.5-11.8 68.5-0.6 14.6 8.6 26.7 23.7 38 47.6l0.4 0.9 0.1 1c0 0.2 2.4 21.9 3.9 43.4 0.9 12.7 1.3 23 1.3 30.5-0.1 10.5-0.7 18.7-7.2 20.1-7.1 1.5-10.8-6.3-16.4-24.2-23.2-74.5-39-86.7-60-83.2-5.7 1-9.2 3.7-10.5 8.4-1.9 6.8 0.7 17.3 7.2 28.9 7.8 13.9 20.8 28.9 37.6 43.5 13.1 11.4 33.3 34.5 55.1 80.1 6.1 12.7 11.6 25.9 15.6 37.3 6.2 17.5 5.3 20.2 4.7 21.9-0.8 2.5-3 4.2-5.6 4.4 0-0.2-0.2-0.2-0.4-0.2z m-94.4-256.6c-9.9 0-20.9 2.6-33.2 7.8-14 6-21.8 17.7-23.2 35-3 36.5 23.9 84.4 48 99.7l2.4 1.5c29.2 18.5 57.2 36.2 78.9 62.2-13-28.7-32.8-64.3-55.8-84.3-35.8-31.1-54.4-63.6-48.4-84.7 2.6-9.2 9.7-15.2 20-16.9 35.9-6 53.5 27.5 73.4 91.5 0 0.1 0 0.1 0.1 0.2-0.5-16.6-2.5-41.5-4.9-64-10.1-21.1-20.6-34.3-32.8-41.5-7.3-4.4-15.5-6.5-24.5-6.5z" fill="" p-id="4934"></path><path d="M693.2 372.4c0 40.3-98.9 73-221 73s-221-32.7-221-73c0 0-11.3 75.7 8 137.7s55.2 111.1 68 123.8 35.4 70.2 37.5 88.4c0 22.2 48.1 40.1 107.5 40.1s107.5-18 107.5-40.1c2-18.1 24.7-75.6 37.5-88.4s48.7-61.8 68-123.8 8-137.7 8-137.7z" fill="#E6E6E6" p-id="4935"></path><path d="M472.2 445.4c-104.6 0-192.1-24-215.1-56.2-2.8 1.4-5.5 2.9-8.1 4.4-2 26.9-2.8 74.8 10.2 116.5 3.3 10.5 7.1 20.7 11.1 30.4 50.4 22.6 122.2 36.7 201.9 36.7s151.5-14.1 201.9-36.7c4-9.7 7.8-19.8 11.1-30.4 13-41.7 12.1-89.6 10.2-116.5-2.6-1.5-5.3-3-8.1-4.4-23 32.3-110.5 56.2-215.1 56.2z" fill="#A67C52" p-id="4936"></path><path d="M493.2 603.5c-6.9 27.8-35 54-56 60s41.1 31 79.1-7-15.1-85-23.1-53z" fill="#FFFFFF" p-id="4937"></path><path d="M472.2 768.4c-29.4 0-57.2-4.3-78.1-12.1-22.6-8.4-35.2-20.4-35.4-33.6-2.6-21.3-26.1-74.9-35.7-84.5-14.3-14.3-50-63.9-69.5-126.3-19.5-62.6-8.7-137.2-8.2-140.3l11.9 0.9c0 16.5 22.1 33.2 60.6 45.9 41.1 13.6 96 21.1 154.4 21.1s113.2-7.5 154.4-21.1c38.5-12.7 60.6-29.5 60.6-45.9l11.9-0.9c0.5 3.1 11.3 77.7-8.2 140.3-19.4 62.4-55.2 112-69.5 126.3-9.6 9.6-33.1 63.2-35.7 84.5-0.2 13.3-12.8 25.2-35.4 33.6-20.9 7.8-48.7 12.1-78.1 12.1zM254.9 396.1c-1.8 26.8-2.3 72.7 10 112.2 18.6 59.6 53.5 108.3 66.5 121.4 9 9 19.8 33.9 24.1 44.1 8.1 19.8 14.1 38.5 15.1 47.8v0.7c0 7.8 10.3 16.3 27.6 22.8 19.7 7.3 45.9 11.4 73.9 11.4s54.3-4 73.9-11.4c17.3-6.4 27.6-15 27.6-22.8v-0.7c1-9.3 7-28.1 15.1-47.8 4.2-10.3 15-35.1 24.1-44.1 13-13 47.9-61.7 66.5-121.4 12.4-39.6 11.8-85.5 10-112.3-11 12.9-31.1 24.4-59.1 33.7-42.3 14-98.5 21.7-158.2 21.7s-115.8-7.7-158.2-21.7c-27.8-9.2-47.9-20.8-58.9-33.6z" fill="" p-id="4938"></path><path d="M595.9 697.4c-41.3 8-95.3 37.3-113.3 40.7-18 3.3-139.3-20.3-168.7-15.8-29.3 4.5-57.3 9.1 0 33.1s143.3 58 186.7 14.7c43.3-43.3 54-52 146.7-68s243.3-37.3 274.7-60c31.3-22.7 0.7-53.3-45.3-30.7-46 22.7-141.3 63.4-194 70.7s-86.8 15.3-86.8 15.3z" fill="#6C657C" p-id="4939"></path><path d="M933.9 617.6c-4.4-13.3-27.7-20.8-57.3-6.2-32.6 16.1-89.9 41.2-139.3 57.1 43.6 0.4 96.3-3.4 128.4-20.6 7.2-7.2-6.5-8-4-15.5s13.8-12.8 22.5-4 17 11.5 35.5 1c6.4-3.3 11-7.4 14.2-11.8zM423.4 771.4c-34.3-6.8-55.7-12.5-63.7-15s-10.5 0-10.5 0c15 10.7 85 37.5 145.2 19.1 2.1-1.7 4.2-3.5 6.2-5.4l1.8-1.8c-19.7 1.8-59.5 7-79 3.1z" fill="#FFFFFF" p-id="4940"></path><path d="M442.3 796.9c-9.6 0-19.9-1-30.9-2.9-34-6.1-69.4-20.2-99.8-33-28-11.7-38-19.4-36.9-28.3 1.3-10.2 15.4-12.8 38.3-16.3 16.9-2.6 59.4 3.2 100.6 8.9 29.8 4.1 60.7 8.3 67.9 7 6.6-1.2 19.6-6.8 34.7-13.2 23.7-10 53.1-22.6 78.4-27.5 2.3-0.5 36.3-8.3 87.1-15.3 50.4-7 144.6-46.7 192.2-70.2 30.3-14.9 55.4-8.3 63.7 5.4 3.3 5.5 3.9 12 1.8 18.3-2.2 6.3-6.9 12.1-14 17.2-27.2 19.7-133.1 37.2-226.5 52.6-18.1 3-35.1 5.8-50.6 8.5-90.6 15.6-100.4 23.2-143.4 66.3-15.1 14.9-36.1 22.5-62.6 22.5z m-155-62.6c1.9 2 8.3 7 28.9 15.6 29.9 12.5 64.6 26.4 97.3 32.2 38 6.8 65.1 1.5 82.8-16.3 44.5-44.5 55.9-53.4 149.9-69.7 15.6-2.7 32.6-5.5 50.7-8.5 87.6-14.4 196.5-32.4 221.4-50.5 9-6.5 12.4-13.9 9-19.6-4.7-7.9-22.8-13.3-48.1-0.8-50.1 24.7-143.7 64.1-195.8 71.3-51.7 7.1-85.8 15.1-86.1 15.2h-0.2c-24.1 4.7-53 16.9-76.2 26.8-16.4 7-29.4 12.5-37.2 13.9-8.7 1.6-32.9-1.6-71.7-6.9-38.4-5.3-81.9-11.2-97.1-8.9-7.8 1.3-22.9 3.6-27.6 6.2z" fill="" p-id="4941"></path><path d="M251.2 372.4a221 73 0 1 0 442 0 221 73 0 1 0-442 0Z" fill="#B97D45" p-id="4942"></path><path d="M526.5 326.1c-116-28-208 9.2-208 54 0 20.3 24.9 41.4 56.7 57.9 29.3 4.7 62.2 7.4 97 7.4 16.3 0 32.1-0.6 47.3-1.7-26.8-2.6-53.2-7.2-75.7-14.3-52.7-16.7-128.7-40-56.7-73 49.4-21.4 69.3-21 69.3-21-28 5.3-92 30 19.7 54.7 111.8 24.7 166.4-36 50.4-64z" fill="#FFFFFF" p-id="4943"></path><path d="M693.2 372.4c0-38.4-89.9-69.9-203.9-72.8 85.3 23.4 161.5 49.7 144.9 92.8-18 47-150.5 17-187.5 0-31.4-14.5 30.2 42.1 137.1 43 65.5-12.6 109.4-36.1 109.4-63z" fill="#E0BA8F" p-id="4944"></path><path d="M472.2 451.4c-59.7 0-115.8-7.7-158.2-21.7-44.4-14.7-68.8-35-68.8-57.3s24.5-42.7 68.8-57.3c42.3-14 98.5-21.7 158.2-21.7s115.8 7.7 158.2 21.7c44.4 14.7 68.8 35 68.8 57.3s-24.5 42.7-68.8 57.3c-42.4 14-98.5 21.7-158.2 21.7z m0-146c-58.4 0-113.2 7.5-154.4 21.1-38.5 12.7-60.6 29.5-60.6 45.9s22.1 33.2 60.6 45.9c41.1 13.6 96 21.1 154.4 21.1s113.2-7.5 154.4-21.1c38.5-12.7 60.6-29.5 60.6-45.9s-22.1-33.2-60.6-45.9c-41.2-13.6-96-21.1-154.4-21.1z" fill="" p-id="4945"></path></svg>