<?xml version="1.0" standalone="no"?><!DOCTYPE svg PUBLIC "-//W3C//DTD SVG 1.1//EN" "http://www.w3.org/Graphics/SVG/1.1/DTD/svg11.dtd"><svg t="1587732391303" class="icon" viewBox="0 0 1024 1024" version="1.1" xmlns="http://www.w3.org/2000/svg" p-id="5853" xmlns:xlink="http://www.w3.org/1999/xlink" width="32" height="32"><defs><style type="text/css"></style></defs><path d="M273.28 256.23a10 10 0 0 0-7.07 2.92l-56.57 56.57a10 10 0 0 0 14.14 14.14l56.57-56.57a10 10 0 0 0-7.07-17.06zM288.28 326.23a10 10 0 0 0-7.07 2.92l-83.57 83.57a10 10 0 0 0 0 14.14 10 10 0 0 0 14.14 0l83.57-83.57a10 10 0 0 0-7.07-17.06z" fill="#26263D" p-id="5854"></path><path d="M896 150a44 44 0 0 1 44 44v470a44 44 0 0 1-44 44H126a44 44 0 0 1-44-44V194a44 44 0 0 1 44-44h770m0-20H126a64 64 0 0 0-64 64v470a64 64 0 0 0 64 64h770a64 64 0 0 0 64-64V194a64 64 0 0 0-64-64z" fill="#26263D" p-id="5855"></path><path d="M898 180a12 12 0 0 1 12 12v474a12 12 0 0 1-12 12H124a12 12 0 0 1-12-12V192a12 12 0 0 1 12-12h774m0-20H124a32 32 0 0 0-32 32v474a32 32 0 0 0 32 32h774a32 32 0 0 0 32-32V192a32 32 0 0 0-32-32zM586.2 728l30.48 128H405.32l30.48-128h150.4m15.8-20H420l-40 168h262l-40-168z" fill="#26263D" p-id="5856"></path><path d="M703 876a20 20 0 1 1 0 40H309a20 20 0 1 1 0-40h394m0-20H309a40.12 40.12 0 0 0-40 40 40.12 40.12 0 0 0 40 40h394a40.12 40.12 0 0 0 40-40 40.12 40.12 0 0 0-40-40z" fill="#26263D" p-id="5857"></path><path d="M385 856h20v80h-20zM617 856h20v80h-20z" fill="#26263D" p-id="5858"></path></svg>